<svg width="25" height="25" viewBox="0 0 25 25" fill="none" xmlns="http://www.w3.org/2000/svg">
<g clip-path="url(#clip0_108_6348)">
<path d="M19.2109 8.85156L15.2109 12.8516H18.2109C18.2109 16.1616 15.5209 18.8516 12.2109 18.8516C11.2009 18.8516 10.2409 18.6016 9.41094 18.1516L7.95094 19.6116C9.18094 20.3916 10.6409 20.8516 12.2109 20.8516C16.6309 20.8516 20.2109 17.2716 20.2109 12.8516H23.2109L19.2109 8.85156ZM6.21094 12.8516C6.21094 9.54156 8.90094 6.85156 12.2109 6.85156C13.2209 6.85156 14.1809 7.10156 15.0109 7.55156L16.4709 6.09156C15.2409 5.31156 13.7809 4.85156 12.2109 4.85156C7.79094 4.85156 4.21094 8.43156 4.21094 12.8516H1.21094L5.21094 16.8516L9.21094 12.8516H6.21094Z" fill="black"/>
</g>
<defs>
<clipPath id="clip0_108_6348">
<rect width="24" height="24" fill="white" transform="translate(0.210938 0.851562)"/>
</clipPath>
</defs>
</svg>
